<?xml version="1.0" encoding="UTF-8" standalone="no"?>
<!-- Created with Inkscape (http://www.inkscape.org/) -->

<svg
   xmlns:dc="http://purl.org/dc/elements/1.1/"
   xmlns:cc="http://creativecommons.org/ns#"
   xmlns:rdf="http://www.w3.org/1999/02/22-rdf-syntax-ns#"
   xmlns:svg="http://www.w3.org/2000/svg"
   xmlns="http://www.w3.org/2000/svg"
   xmlns:xlink="http://www.w3.org/1999/xlink"
   xmlns:sodipodi="http://sodipodi.sourceforge.net/DTD/sodipodi-0.dtd"
   xmlns:inkscape="http://www.inkscape.org/namespaces/inkscape"
   width="850"
   height="850"
   id="svg2"
   version="1.1"
   inkscape:version="0.48.4 r9939"
   sodipodi:docname="earth.svg">
  <defs
     id="defs4">
    <linearGradient
       id="linearGradient3853">
      <stop
         style="stop-color:#ffffff;stop-opacity:1;"
         offset="0"
         id="stop3855" />
      <stop
         style="stop-color:#91bcff;stop-opacity:0;"
         offset="1"
         id="stop3857" />
    </linearGradient>
    <linearGradient
       inkscape:collect="always"
       id="linearGradient3797">
      <stop
         style="stop-color:#ffffff;stop-opacity:1;"
         offset="0"
         id="stop3799" />
      <stop
         style="stop-color:#ffffff;stop-opacity:0;"
         offset="1"
         id="stop3801" />
    </linearGradient>
    <radialGradient
       inkscape:collect="always"
       xlink:href="#linearGradient3797"
       id="radialGradient3803"
       cx="299.51022"
       cy="533.1438"
       fx="299.51022"
       fy="533.1438"
       r="249.00261"
       gradientTransform="matrix(1,0,0,1.0060852,0,-3.2442815)"
       gradientUnits="userSpaceOnUse" />
    <radialGradient
       inkscape:collect="always"
       xlink:href="#linearGradient3797"
       id="radialGradient3811"
       gradientUnits="userSpaceOnUse"
       gradientTransform="matrix(1,0,0,1.0060852,0,-3.2442815)"
       cx="158.65308"
       cy="430.51932"
       fx="158.65308"
       fy="430.51932"
       r="249.00261" />
    <radialGradient
       inkscape:collect="always"
       xlink:href="#linearGradient3797"
       id="radialGradient2998"
       gradientUnits="userSpaceOnUse"
       gradientTransform="matrix(1,0,0,1.0060852,0,-3.2442815)"
       cx="158.65308"
       cy="430.51932"
       fx="158.65308"
       fy="430.51932"
       r="249.00261" />
    <radialGradient
       inkscape:collect="always"
       xlink:href="#linearGradient3853"
       id="radialGradient3859"
       cx="299.51022"
       cy="533.1438"
       fx="299.51022"
       fy="533.1438"
       r="249.00261"
       gradientTransform="matrix(1,0,0,1.0060852,0,-3.2442815)"
       gradientUnits="userSpaceOnUse" />
  </defs>
  <sodipodi:namedview
     id="base"
     pagecolor="#ffffff"
     bordercolor="#666666"
     borderopacity="1.0"
     inkscape:pageopacity="0.0"
     inkscape:pageshadow="2"
     inkscape:zoom="0.49497475"
     inkscape:cx="324.70228"
     inkscape:cy="355.07474"
     inkscape:document-units="px"
     inkscape:current-layer="g2992"
     showgrid="false"
     inkscape:snap-object-midpoints="true"
     inkscape:snap-center="true"
     fit-margin-top="0"
     fit-margin-left="0"
     fit-margin-right="0"
     fit-margin-bottom="0"
     inkscape:window-width="1920"
     inkscape:window-height="1021"
     inkscape:window-x="0"
     inkscape:window-y="0"
     inkscape:window-maximized="1" />
  <metadata
     id="metadata7">
    <rdf:RDF>
      <cc:Work
         rdf:about="">
        <dc:format>image/svg+xml</dc:format>
        <dc:type
           rdf:resource="http://purl.org/dc/dcmitype/StillImage" />
        <dc:title />
      </cc:Work>
    </rdf:RDF>
  </metadata>
  <g
     inkscape:label="Layer 1"
     inkscape:groupmode="layer"
     id="layer1"
     transform="translate(8.3089199,166.08095)">
    <g
       id="g3805"
       transform="translate(14.142136,24.243662)">
      <g
         id="g2992"
         transform="translate(4.0406102,0)">
        <path
           sodipodi:type="arc"
           style="opacity:0.98999999;fill:url(#radialGradient3859);fill-opacity:1;stroke:none"
           id="path2989-2"
           sodipodi:cx="299.51022"
           sodipodi:cy="533.1438"
           sodipodi:rx="249.00261"
           sodipodi:ry="250.51784"
           d="m 548.51283,533.1438 a 249.00261,250.51784 0 1 1 -498.005216,0 249.00261,250.51784 0 1 1 498.005216,0 z"
           transform="matrix(1.5070481,0,0,1.4979329,-39.979613,-558.64387)" />
        <path
           sodipodi:type="arc"
           style="fill:#0066ff;fill-opacity:1;stroke:none"
           id="path2989"
           sodipodi:cx="299.51022"
           sodipodi:cy="533.1438"
           sodipodi:rx="249.00261"
           sodipodi:ry="250.51784"
           d="m 548.51283,533.1438 a 249.00261,250.51784 0 1 1 -498.005216,0 249.00261,250.51784 0 1 1 498.005216,0 z"
           transform="matrix(1.0040055,0,0,0.99793293,110.68679,-292.07199)" />
        <path
           style="fill:#37c837;fill-opacity:1;stroke:none"
           d="m 501.97713,306.17477 c -14.55743,-1.61091 -18.28707,-3.33032 -32.00811,-14.75611 -4.96486,-4.13435 -13.24025,-9.50885 -20.70813,-13.44902 -23.45381,-12.37463 -39.13104,-24.40088 -46.72747,-35.84539 -2.06753,-3.11487 -3.59185,-6.66762 -3.59185,-8.3716 0,-4.41675 4.6942,-10.3243 20.25199,-25.48672 7.69596,-7.50038 14.46984,-14.91671 15.05307,-16.48074 2.6375,-7.07282 -0.29142,-27.45827 -5.53878,-38.55028 -1.9291,-4.07779 -4.12036,-6.71722 -7.88625,-9.49925 -2.8682,-2.11887 -5.83369,-4.59806 -6.58996,-5.50932 -0.75628,-0.91125 -2.89648,-2.59713 -4.756,-3.74637 -3.35138,-2.07128 -3.69392,-2.07901 -39.1859,-0.8853 -49.2499,1.65644 -65.40644,0.0269 -83.67558,-8.43963 -13.56241,-6.28525 -21.40713,-15.2137 -36.14453,-41.137881 -4.57967,-8.05596 -9.86153,-16.53526 -11.73748,-18.84288 l -3.41081,-4.19568 5.94213,-5.501361 c 39.16031,-36.255531 85.11406,-57.7821953 140.00043,-65.582055 11.81801,-1.67945 48.75083,-1.66068 61.11423,0.0311 73.64651,10.07737968 136.32428,49.035859 177.08177,110.068356 21.00645,31.456191 36.61599,73.808581 39.68482,107.674281 l 0.66642,7.35416 -6.3342,0.66205 c -12.69625,1.32702 -15.83581,0.90602 -25.4176,-3.40843 -13.87381,-6.24704 -23.1464,-9.06149 -29.8543,-9.06149 -5.22996,0 -6.28131,0.34962 -8.72668,2.90203 -3.78427,3.94993 -6.40314,13.00001 -8.19227,28.31012 -0.82531,7.06244 -2.40684,15.47494 -3.51451,18.69445 -2.71381,7.88783 -13.52005,29.61681 -17.25427,34.69456 -2.75351,3.74418 -3.68343,4.24556 -10.81878,5.83302 -7.02867,1.56373 -8.2744,2.21983 -12.505,6.58611 -3.82398,3.9466 -5.51772,4.95043 -9.0984,5.39229 -9.34248,1.15288 -18.8446,1.35189 -26.118,0.54702 z"
           id="path3765"
           inkscape:connector-curvature="0" />
        <path
           style="fill:#37c837;fill-opacity:1;stroke:none"
           d="M 393.17524,489.48038 C 338.75955,485.367 289.43822,464.96867 247.8181,429.36352 c -6.21367,-5.31566 -20.45488,-19.55876 -25.74921,-25.75263 -24.29072,-28.41783 -41.36035,-59.99942 -51.25031,-94.82143 -2.0714,-7.29329 -3.69283,-14.10714 -3.35696,-14.10714 0.14343,0 0.61967,-1.00446 1.05832,-2.23214 2.22906,-6.23856 10.89463,-20.74994 19.78083,-33.125 10.71092,-14.91621 20.5418,-26.69543 30.45905,-36.49564 12.47461,-12.32739 21.59722,-18.14722 28.44583,-18.14722 2.32522,0 3.01289,0.21638 10.39052,3.26935 17.49425,7.23938 29.18807,13.26017 39.8728,20.52927 4.84865,3.29866 6.61711,6.05257 8.91317,13.87995 2.72769,9.29882 4.15895,11.20441 9.2214,12.27743 3.97611,0.84276 8.53219,0.35609 18.46456,-1.97234 13.21312,-3.09754 16.61069,-3.68197 21.46073,-3.69154 3.78993,-0.007 7.68965,0.88037 10.28573,2.34176 6.64487,3.74052 10.93211,13.84094 10.93211,25.75521 0,6.98216 -0.95059,11.44508 -5.23448,24.5752 -1.47401,4.51785 -3.18355,10.0625 -3.79897,12.32143 l -1.11895,4.10714 -0.0131,13.92857 c -0.0136,14.5299 -0.0906,15.39447 -1.63971,18.43105 -0.86762,1.70069 -3.84214,4.34465 -6.1681,5.48263 -2.51957,1.23271 -6.21415,1.96551 -9.94728,1.97298 -11.26832,0.0225 -16.77617,3.51839 -22.22396,14.10562 -2.23042,4.33457 -2.85215,7.37131 -2.62533,12.82296 0.20512,4.93018 1.1672,8.86263 3.48166,14.23106 4.9765,11.54311 16.3529,24.94654 27.01134,31.8242 1.39951,0.90307 4.583,2.6054 7.07443,3.78295 6.19936,2.93006 6.78589,3.45549 9.47617,8.48908 10.86275,20.32448 17.10166,29.65167 28.67911,42.87533 l 3.51767,4.01785 -1.89597,-0.0433 c -1.04279,-0.0238 -4.70848,-0.25592 -8.14598,-0.51577 z"
           id="path3777"
           inkscape:connector-curvature="0" />
        <path
           sodipodi:type="arc"
           style="opacity:0.77215187;fill:url(#radialGradient2998);fill-opacity:1;stroke:none"
           id="path2989-6"
           sodipodi:cx="299.51022"
           sodipodi:cy="533.1438"
           sodipodi:rx="249.00261"
           sodipodi:ry="250.51784"
           d="m 548.51283,533.1438 a 249.00261,250.51784 0 1 1 -498.005216,0 249.00261,250.51784 0 1 1 498.005216,0 z"
           transform="matrix(1.0040055,0,0,0.99793293,110.68679,-292.07199)" />
      </g>
    </g>
  </g>
</svg>
